<svg xmlns="http://www.w3.org/2000/svg" width="420" height="174" viewBox="0 0 420 174" role="img" aria-label="Most used languages"><style>text{font-family:-apple-system,BlinkMacSystemFont,"Segoe UI",Helvetica,Arial,sans-serif}</style><rect x="0.5" y="0.5" width="419" height="173" rx="7" fill="none" stroke="#d0d7de"/><text x="22" y="30" font-size="14" font-weight="600" fill="#c2410c">Languages</text><clipPath id="r"><rect x="22" y="44" width="376" height="12" rx="6"/></clipPath><g clip-path="url(#r)"><rect x="22.0" y="44" width="139.9" height="12" fill="#00ADD8"/><rect x="161.9" y="44" width="84.7" height="12" fill="#3178c6"/><rect x="246.6" y="44" width="45.2" height="12" fill="#f1e05a"/><rect x="291.8" y="44" width="41.8" height="12" fill="#00B4AB"/><rect x="333.6" y="44" width="29.2" height="12" fill="#F05138"/><rect x="362.8" y="44" width="20.6" height="12" fill="#663399"/><rect x="383.4" y="44" width="14.6" height="12" fill="#89e051"/></g><circle cx="27" cy="78" r="5" fill="#00ADD8"/><text x="38" y="82" font-size="12" fill="#57606a">Go <tspan fill="#24292f" font-weight="600">37.2%</tspan></text><circle cx="215.0" cy="78" r="5" fill="#3178c6"/><text x="226.0" y="82" font-size="12" fill="#57606a">TypeScript <tspan fill="#24292f" font-weight="600">22.5%</tspan></text><circle cx="27" cy="100" r="5" fill="#f1e05a"/><text x="38" y="104" font-size="12" fill="#57606a">JavaScript <tspan fill="#24292f" font-weight="600">12.0%</tspan></text><circle cx="215.0" cy="100" r="5" fill="#00B4AB"/><text x="226.0" y="104" font-size="12" fill="#57606a">Dart <tspan fill="#24292f" font-weight="600">11.1%</tspan></text><circle cx="27" cy="122" r="5" fill="#F05138"/><text x="38" y="126" font-size="12" fill="#57606a">Swift <tspan fill="#24292f" font-weight="600">7.8%</tspan></text><circle cx="215.0" cy="122" r="5" fill="#663399"/><text x="226.0" y="126" font-size="12" fill="#57606a">CSS <tspan fill="#24292f" font-weight="600">5.5%</tspan></text><circle cx="27" cy="144" r="5" fill="#89e051"/><text x="38" y="148" font-size="12" fill="#57606a">Shell <tspan fill="#24292f" font-weight="600">3.9%</tspan></text></svg>